<svg viewBox="0 0 142 60" fill="none" xmlns="http://www.w3.org/2000/svg">
<g clip-path="url(#clip0_8202_62559)">
<path d="M125.563 32.0386C124.123 31.9912 122.687 31.9439 121.246 31.9914C114.554 32.269 106.974 33.4385 102.215 38.5772C99.9448 41.0299 98.7125 44.0679 98.8865 47.4036C99.0004 49.2902 99.5068 51.1336 100.374 52.8193C100.366 52.8336 100.358 52.8478 100.35 52.8618C100.346 52.8694 100.342 52.877 100.337 52.8844C100.082 53.3137 99.5425 53.9111 98.9983 54.5135C98.3097 55.2758 97.6138 56.0462 97.477 56.4949C97.4423 56.6088 97.4679 56.7478 97.5009 56.8592C97.6135 57.2344 98.0048 57.5276 98.3117 57.7576L98.3348 57.7749C99.0081 57.1222 99.6195 56.4131 100.231 55.7041L100.28 55.6476L101.517 54.1578C104.803 55.9948 108.029 56.5746 111.715 55.5663C116.229 54.3319 119.718 51.1662 121.967 47.1889C124.471 42.7612 125.624 37.0757 125.791 32.0462L125.563 32.0386ZM119.026 36.4764C119.043 36.4808 119.06 36.485 119.077 36.4892C119.237 36.529 119.382 36.5651 119.518 36.6716C119.663 36.7854 119.777 36.9668 119.767 37.1526C119.755 37.3748 119.673 37.4864 119.518 37.6417C119.035 38.1234 118.451 38.5467 117.878 38.9622C117.625 39.1458 117.374 39.3279 117.134 39.5128C115.618 40.6699 114.125 41.8537 112.652 43.0637C113.582 42.8417 116.698 42.3155 117.509 42.5888C117.759 42.6742 117.843 42.7953 117.945 43.0263C117.923 43.3678 117.817 43.5752 117.487 43.7183C117.337 43.7837 116.22 43.8908 114.966 44.011C113.539 44.1479 111.934 44.3016 111.384 44.4298C111.035 44.5111 110.759 44.6258 110.467 44.8283C110.024 45.1347 109.623 45.5173 109.227 45.8949C109.08 46.0353 108.934 46.175 108.787 46.3099C107.488 47.4987 106.213 48.6966 104.968 49.9407C105.853 50.1334 107.154 50.0717 108.413 50.0119C109.832 49.9446 111.198 49.8798 111.857 50.1839C111.965 50.3205 111.997 50.4652 111.982 50.6392C111.969 50.7791 111.889 50.8669 111.788 50.9572C111.244 51.4459 105.873 51.2898 105.04 51.1962C105.007 51.191 104.972 51.1851 104.936 51.1791C104.751 51.1477 104.545 51.1129 104.369 51.1491C103.02 51.4231 101.173 53.4821 100.37 54.514L100.419 54.4011C100.794 53.5397 101.17 52.6743 101.691 51.8866C102.573 50.5522 105.076 48.0818 106.303 46.9141C106.498 46.7286 106.726 46.5399 106.96 46.3455C107.477 45.9159 108.028 45.4587 108.334 44.9511C108.641 44.4393 108.825 43.3694 109.017 42.2464C109.259 40.8353 109.515 39.3402 110.05 38.7636C110.206 38.5961 110.253 38.5861 110.467 38.5644C110.678 38.6558 110.813 38.7445 110.933 38.9463C111.02 39.0936 111.032 39.2406 111.009 39.4047C110.953 39.8023 110.812 40.2205 110.673 40.6299C110.598 40.8513 110.524 41.0701 110.465 41.2816C110.264 42.0009 110.112 42.7317 109.96 43.4618C109.943 43.5441 109.925 43.6271 109.908 43.7093C110.617 43.0368 111.412 42.439 112.201 41.8462C112.457 41.6541 112.712 41.4625 112.963 41.2691C113.343 40.9763 113.725 40.684 114.107 40.3915C115.771 39.1176 117.443 37.837 119.026 36.4764Z" fill="currentColor"/>
<path d="M20.8226 0.503573C20.7965 0.506342 20.7709 0.511951 20.745 0.516179C17.8884 0.854057 15.3027 2.14123 13.5017 4.38665C11.2966 7.13569 10.6934 10.6477 11.1126 14.0679C11.4758 17.0312 12.8503 19.8296 15.2771 21.6716C17.7007 23.5115 20.5198 24.0317 23.5128 23.802C26.4238 23.4078 29.0499 22.1085 30.8583 19.7795C32.9564 17.0777 33.5336 13.5091 33.0758 10.1959C32.6601 7.187 31.141 4.38406 28.6585 2.54969C26.4087 0.887479 23.6096 0.212866 20.8226 0.503573ZM21.7559 4.34121C23.3195 4.32218 24.735 4.61142 25.9652 5.61481C27.47 6.84222 28.1512 8.77961 28.3243 10.6449C28.5472 13.0472 28.2814 15.8856 26.6438 17.8062C25.5162 19.1287 24.0703 19.657 22.3665 19.8054C22.3349 19.8085 22.3034 19.8131 22.2717 19.8148C20.827 19.8878 19.3214 19.4664 18.203 18.5488C16.6674 17.2889 16.0179 15.3726 15.8551 13.4634C15.6511 11.0725 15.8405 8.15809 17.4977 6.24599C18.6201 4.95093 20.0776 4.46164 21.7559 4.34121Z" fill="currentColor"/>
<path d="M55.5826 6.53199C55.5726 6.53309 55.5627 6.53419 55.5527 6.5352C53.6004 6.72094 51.9343 7.48434 50.6628 8.98612C49.0739 10.8629 48.5324 13.4968 48.7688 15.886C48.9679 17.8981 49.8059 19.8848 51.4316 21.1776C53.0711 22.4814 55.1712 22.7886 57.2175 22.5439C58.8294 22.3511 59.8934 21.6424 61.0083 20.5223C61.01 20.6308 61.0121 20.7416 61.0143 20.8541C61.0439 22.3719 61.0797 24.2074 59.9377 25.3351C59.17 26.0931 58.0697 26.2547 57.0304 26.2333C55.9066 26.2102 54.7745 25.9546 53.9751 25.114C53.7487 24.8758 53.6005 24.5805 53.4543 24.2891C53.4286 24.2379 53.4029 24.1868 53.3769 24.1361C52.9695 24.135 52.5461 24.1212 52.1168 24.1072C51.0765 24.0732 50.0009 24.0381 49.0303 24.1801C48.9459 24.4004 49.0085 24.6384 49.0681 24.8648C49.0799 24.9098 49.0916 24.9544 49.1021 24.9982C49.6824 26.7101 50.9185 28.0292 52.5472 28.8436C54.8607 30.0003 58.1525 30.1016 60.5925 29.2962C62.3879 28.7036 63.9363 27.5046 64.7825 25.8157C65.1078 25.1534 65.3169 24.4415 65.401 23.7103C65.5689 22.3708 65.5546 20.9637 65.5406 19.5811C65.5355 19.0785 65.5305 18.5791 65.5342 18.0874L65.5616 6.90317C65.1157 6.9038 64.6696 6.90574 64.2235 6.90767C63.1788 6.9122 62.1339 6.91674 61.0898 6.90455L61.0871 8.36892C59.4472 7.0336 57.8006 6.36306 55.6393 6.52634C55.6204 6.52778 55.6015 6.52988 55.5826 6.53199ZM56.7677 10.1033C57.6371 10.0304 58.5476 10.1816 59.2966 10.6364C60.153 11.1563 60.6846 11.9975 60.9183 12.9493C61.2542 14.3169 61.2308 16.1914 60.4532 17.4072C59.8343 18.3749 58.9427 18.7387 57.8564 18.9628C56.8958 19.0676 55.9058 18.9464 55.0907 18.3953C54.1309 17.7465 53.6107 16.6816 53.4182 15.5762C53.1851 14.2374 53.3446 12.6706 54.1748 11.5503C54.8191 10.6809 55.7131 10.2585 56.7677 10.1033Z" fill="currentColor"/>
<path d="M85.888 38.6617C84.4628 37.5013 82.6821 37.0684 80.8609 37.1113C78.7313 37.2741 77.4455 37.902 76.0392 39.4736L76.0326 37.4769L71.4995 37.4782L71.5012 60.1442L76.1134 60.1401L76.1068 56.798L76.1134 52.5678C77.7836 53.9388 79.5701 54.6374 81.769 54.4479C83.7048 54.282 85.3956 53.4152 86.646 51.9474C88.3946 49.8941 88.9085 47.0407 88.6536 44.432C88.4424 42.2738 87.6242 40.0762 85.888 38.6617ZM79.627 40.847C80.5442 40.751 81.529 40.9622 82.2821 41.4949C83.3164 42.2258 83.8079 43.4261 83.977 44.6312C84.1964 46.1998 84.0381 48.0409 83.0062 49.3232C82.3002 50.2007 81.4474 50.5674 80.3537 50.7146C79.3986 50.8065 78.3552 50.5902 77.5725 50.0307C76.6809 49.3932 76.2099 48.4222 76.0392 47.3708C75.7802 45.781 75.8256 43.6196 76.8483 42.2844C77.5552 41.3625 78.5004 40.9818 79.627 40.847Z" fill="currentColor"/>
<path d="M68.8998 45.0949C68.5231 40.2762 64.2597 36.6683 59.3716 37.0318C54.4722 37.3961 50.8024 41.6113 51.18 46.4415C51.5575 51.271 55.839 54.8823 60.7373 54.5017C65.6241 54.1228 69.2764 49.9138 68.8998 45.0949ZM59.6494 40.6801C60.4985 40.5822 61.4415 40.7929 62.1705 41.2248C63.1678 41.8153 63.7777 42.8164 64.0409 43.9142C64.4224 45.5047 64.3532 47.5775 63.4375 48.99C62.7742 50.0122 61.8671 50.4976 60.6956 50.7391C59.6295 50.7814 58.6819 50.6985 57.7748 50.0772C56.7619 49.3844 56.216 48.2516 56.0134 47.0823C55.7406 45.5063 55.8667 43.5807 56.8529 42.252C57.5559 41.3051 58.5017 40.8549 59.6494 40.6801Z" fill="currentColor"/>
<path d="M18.843 31.4171C19.1863 31.3707 19.5572 31.3766 19.9043 31.3655C22.4287 31.2853 25.1361 31.7151 27.0329 33.4976C28.4202 34.8011 28.8284 36.363 28.867 38.1966L24.2968 38.2137C24.2436 37.3116 24.1071 36.5913 23.393 35.9481C22.4394 35.089 21.0101 34.8854 19.763 34.947C18.783 34.9955 17.7614 35.2609 17.0995 36.0231C16.6174 36.5782 16.4596 37.2974 16.5405 38.0129C16.6183 38.702 16.9723 39.2512 17.5515 39.6395C18.4567 40.2466 19.6161 40.475 20.6669 40.7074C22.9799 41.2189 25.8687 41.6234 27.7239 43.183C28.8615 44.1392 29.3921 45.4062 29.4999 46.8569C29.6316 48.6288 29.1514 50.2909 27.9504 51.6335C26.2799 53.5005 23.7906 54.2584 21.3436 54.4162C18.6414 54.6008 15.6544 54.0714 13.5413 52.293C11.9916 50.9895 11.3341 49.3216 11.1768 47.357L15.8321 47.3497C16.0441 48.3239 16.4032 49.1362 17.2192 49.7648C18.3411 50.6292 19.9168 50.8024 21.2933 50.6504C22.3681 50.5316 23.4965 50.1185 24.1681 49.2419C24.5863 48.6963 24.7341 48.0214 24.6406 47.3481C24.5442 46.6536 24.1462 46.0901 23.5567 45.7079C22.892 45.2769 22.0721 45.0655 21.3121 44.8662C18.808 44.21 15.8047 43.9945 13.7179 42.3665C12.5895 41.4863 11.9303 40.2867 11.765 38.8777C11.5616 37.1434 11.9023 35.5167 13.0208 34.1344C14.4212 32.4034 16.688 31.6639 18.843 31.4171Z" fill="currentColor"/>
<path d="M81.9589 7.70676C80.3201 6.65304 78.1558 6.46674 76.2514 6.53855C74.1902 6.67378 71.7835 7.14022 70.3633 8.76747C69.6034 9.63822 69.318 10.6849 69.2698 11.8082L73.5279 11.8251C73.9914 10.9083 74.5564 10.2651 75.5849 9.94495C76.517 9.65481 77.7335 9.65392 78.6004 10.1238C79.1019 10.3959 79.5027 10.8611 79.6636 11.4064C79.7524 11.7046 79.7788 12.0253 79.8044 12.3373C79.8085 12.3873 79.8126 12.4371 79.817 12.4865C79.5258 12.8072 79.2676 13.0275 78.8619 13.1953C77.9024 13.5921 76.7531 13.6666 75.6594 13.7375C75.2788 13.7621 74.905 13.7864 74.5482 13.8236C71.3455 14.1575 68.3621 15.3244 68.5992 19.0578C68.6469 19.8098 68.8458 20.4604 69.1725 21.1375C70.0073 22.451 71.1319 23.2697 72.6734 23.6079C74.5416 24.0178 76.8007 23.8247 78.4404 22.7968C79.007 22.4415 79.4804 22.0006 79.9365 21.5171C80.0298 22.1652 80.1601 22.7889 80.3226 23.4235L84.6098 23.4151C84.1369 21.1843 84.1726 18.8694 84.2078 16.5784C84.2173 15.9605 84.2268 15.3443 84.2263 14.7321C84.2261 14.5207 84.2278 14.3053 84.2294 14.0869C84.24 12.7279 84.2513 11.2587 83.8114 10.0005C83.4741 9.03591 82.8184 8.25988 81.9589 7.70676ZM79.6751 15.6244L79.8038 15.693C79.9885 16.6433 79.7485 17.8999 79.2528 18.7157C78.7093 19.6114 77.8284 20.2874 76.7941 20.5305C75.8464 20.7531 75.0076 20.6325 74.1861 20.1202C73.8455 19.8169 73.5716 19.4999 73.4273 19.0615C73.2615 18.5546 73.2895 17.9446 73.5485 17.4722C74.1241 16.4239 76.1868 16.1507 77.8964 15.9242C78.5875 15.8326 79.2209 15.7487 79.6751 15.6244Z" fill="currentColor"/>
<path d="M32.3528 31.2314L36.9395 31.2315L36.9438 39.6182C37.1512 39.3514 37.3598 39.0839 37.5963 38.8411C38.7598 37.6462 40.3516 37.1137 42.0063 37.0844C43.7226 37.0539 45.5162 37.4909 46.766 38.7103C47.5566 39.4818 48.0751 40.4966 48.3162 41.5619C48.6593 43.0782 48.4853 44.8054 48.4855 46.3578L48.4879 53.9951L43.9048 53.9968C43.8672 51.9516 43.9018 49.8992 43.902 47.8532C43.899 46.2008 44.316 43.166 43.1423 41.8601C42.6064 41.264 41.849 41.0162 41.0609 40.9749C39.9927 40.9191 38.7996 41.0545 37.9936 41.8137C37.4947 42.2837 37.1964 42.9237 37.0573 43.5832C36.7766 44.9144 36.9312 46.4513 36.9378 47.8085L36.9417 53.9951L32.3537 53.9968C32.3042 51.4206 32.3495 48.8347 32.35 46.2578L32.3528 31.2314Z" fill="currentColor"/>
<path d="M97.5763 6.53422C97.8311 6.51494 98.0868 6.50462 98.3425 6.50332C99.9904 6.49372 101.509 6.96943 102.694 8.13488C103.46 8.89691 103.993 9.85459 104.236 10.8999C104.607 12.4677 104.41 14.29 104.41 15.9002L104.42 23.4193H99.8692L99.875 16.5953C99.8758 15.3616 99.9706 14.0242 99.8024 12.8029C99.7306 12.2822 99.6069 11.7686 99.2902 11.3355C98.839 10.7176 98.0786 10.3463 97.3197 10.2627C96.0784 10.1259 94.9938 10.3169 93.9876 11.0643C93.4878 11.6184 93.2609 12.092 93.1166 12.8208C92.8791 14.0137 93.0135 15.3977 93.0151 16.6102L93.0267 23.4188L88.3369 23.4198L88.3443 6.90543L92.8609 6.90771C92.8626 7.62981 92.87 8.352 92.8824 9.07402C92.9937 8.93 93.1059 8.78745 93.2205 8.64653C94.3497 7.26087 95.8302 6.72198 97.5763 6.53422Z" fill="currentColor"/>
<path d="M124.25 6.53619C126.139 6.42251 128.028 6.73355 129.664 7.70823C131.57 8.84416 132.579 10.5047 133.106 12.5953C131.59 12.5775 130.074 12.5763 128.558 12.5919C128.205 11.7723 127.706 11.0636 126.946 10.5605C126.159 10.0386 125.176 9.82046 124.243 10.0246C123.168 10.2597 122.275 10.8986 121.689 11.8157C120.761 13.2704 120.67 15.4141 121.089 17.0444C121.383 18.1931 122.036 19.2804 123.106 19.8784C123.983 20.3687 125.124 20.4788 126.087 20.1875C127.344 19.807 128.042 18.8034 128.603 17.7061L129.294 17.7057L133.018 17.7019C132.703 18.9306 132.275 20.0443 131.456 21.0382C130.084 22.7011 128.067 23.5856 125.932 23.8038C123.576 24.0446 121.207 23.5072 119.354 22.008C117.535 20.5355 116.519 18.3871 116.317 16.0943C116.106 13.694 116.614 11.2636 118.218 9.38907C119.769 7.57552 121.9 6.74266 124.25 6.53619Z" fill="currentColor"/>
<path d="M45.7335 6.61717C46.1578 6.59034 46.5809 6.64092 47.0036 6.67645L47.0019 10.8962L46.3214 10.8911C44.8126 10.8879 43.1014 10.9843 41.9845 12.1308C41.4733 12.6557 41.1841 13.3064 41.0275 14.0101C40.7517 15.2494 40.8899 16.6721 40.8952 17.9405L40.9054 23.4182C39.5552 23.4217 37.6941 23.5816 36.3895 23.3816C36.2559 23.1951 36.2941 23.011 36.2866 22.787L36.2871 6.90894L40.8152 6.9065C40.8366 7.67243 40.8646 8.43812 40.8994 9.20356C41.077 8.91911 41.2659 8.65125 41.4845 8.39559C42.5421 7.15867 44.1688 6.75029 45.7335 6.61717Z" fill="currentColor"/>
<path d="M108.647 6.90723L113.315 6.91081L113.311 17.8476C113.311 19.6927 113.415 21.5817 113.29 23.4199L108.633 23.4216C108.708 21.2785 108.666 19.1238 108.666 16.9792L108.647 6.90723Z" fill="currentColor"/>
<path d="M108.531 0.48722L113.704 0.483398C113.692 1.75659 113.694 3.02986 113.708 4.30298L108.531 4.30485V0.48722Z" fill="currentColor"/>
</g>
<defs>
<clipPath id="clip0_8202_62559">
<rect width="142" height="60" fill="currentColor"/>
</clipPath>
</defs>
</svg>
