<svg style="position: absolute; width: 0; height: 0; overflow: hidden;" aria-hidden="true" version="1.1" xmlns="http://www.w3.org/2000/svg" xmlns:xlink="http://www.w3.org/1999/xlink">
    <style>
        .default-palette, .palette0 {color: currentColor;
            --color0: #fff;
        }
    </style>
    <defs>
        <symbol id="IconYoutube" viewBox="0 0 24 24" fill="none">
            <path fill="var(--color0, #fff)" d="M21.5933 7.203c-0.1139-0.4226-0.3365-0.808-0.6456-1.1178-0.3091-0.3099-0.694-0.5333-1.1164-0.6482C18.2653 5.007 12.0003 5 12.0003 5s-6.264-7e-3-7.831 0.404c-0.422 0.1201-0.8061 0.3468-1.1154 0.6581-0.3093 0.3114-0.5333 0.697-0.6506 1.1199-0.413 1.566-0.417 4.814-0.417 4.814s-4e-3 3.264 0.406 4.814c0.23 0.857 0.905 1.534 1.763 1.765 1.582 0.43 7.83 0.437 7.83 0.437s6.265 7e-3 7.831-0.403c0.4225-0.1147 0.8078-0.3376 1.1177-0.6468s0.5337-0.694 0.6493-1.1162c0.414-1.565 0.417-4.812 0.417-4.812s0.02-3.265-0.407-4.831zM9.9963 15.005l5e-3-6 5.207 3.005z" />
        </symbol>
        <symbol id="IconX" viewBox="0 0 24 24" fill="none">
            <path fill="var(--color0, #fff)" d="M17.1761 4.2427l2.7601 0-6.0301 6.7774L21 20.2427h-5.5544l-4.3505-5.5934-4.9779 5.5934H3.3554l6.4498-7.2492L3 4.2427l5.6954 0 3.9325 5.1126zM16.2073 18.6181h1.5295L7.8644 5.782l-1.6412 0z" />
        </symbol>
        <symbol id="IconLinkedIn" viewBox="0 0 24 24" fill="none">
            <path fill="var(--color0, #fff)" d="M19.3125 3H4.6875C3.7594 3 3 3.7594 3 4.6875v14.625C3 20.2406 3.7594 21 4.6875 21h14.625C20.2406 21 21 20.2406 21 19.3125V4.6875C21 3.7594 20.2406 3 19.3125 3zM9.75 17.625H7.5V9.75h2.25zM8.625 8.625C8.0029 8.625 7.5 8.1221 7.5 7.5c0-0.6221 0.5029-1.125 1.125-1.125S9.75 6.8779 9.75 7.5c0 0.6221-0.5029 1.125-1.125 1.125zM17.625 17.625h-2.25v-4.5c0-0.6221-0.5029-1.125-1.125-1.125s-1.125 0.5029-1.125 1.125v4.5h-2.25V9.75h2.25v1.3956c0.4641-0.6362 1.1739-1.3956 1.9688-1.3956 1.3994 0 2.5312 1.2589 2.5312 2.8125z" />
        </symbol>
        <symbol id="IconInstagram" viewBox="0 0 24 24" fill="var(--color0, #fff)">
            <path d="M11.9988 4.6209c2.4044 0 2.689 0.0107 3.6344 0.0529 0.8791 0.0388 1.3532 0.1861 1.6698 0.3093 0.4185 0.162 0.7205 0.3588 1.0332 0.6715 0.3166 0.3166 0.5096 0.6152 0.6749 1.0337 0.1232 0.3166 0.2705 0.7941 0.3093 1.6698 0.0422 0.9494 0.0529 1.234 0.0529 3.635 0 2.401-0.0107 2.6889-0.0529 3.6349-0.0388 0.8791-0.1861 1.3532-0.3093 1.6699-0.162 0.4184-0.3583 0.7204-0.6715 1.0331-0.3167 0.3167-0.6153 0.5096-1.0332 0.675-0.3166 0.1231-0.7947 0.2705-1.6698 0.3093-0.9494 0.0422-1.234 0.0529-3.635 0.0529-2.401 0-2.6889-0.0107-3.6349-0.0529-0.8791-0.0388-1.3532-0.1862-1.6699-0.3093-0.4184-0.162-0.7205-0.3583-1.0337-0.6716-0.3167-0.3166-0.5096-0.6153-0.6749-1.0332-0.1232-0.3166-0.2706-0.7947-0.3094-1.6698-0.0421-0.9494-0.0528-1.234-0.0528-3.635 0-2.4009 0.0107-2.6889 0.0528-3.6349 0.0389-0.8791 0.1862-1.3532 0.3094-1.6698 0.162-0.4185 0.3588-0.7205 0.6715-1.0338 0.3167-0.3166 0.6153-0.5095 1.0337-0.6749 0.3167-0.1232 0.7942-0.2705 1.6699-0.3093 0.9454-0.0422 1.2306-0.0529 3.6349-0.0529zM11.9988 3.0006c-2.4432 0-2.7486 0.0107-3.7086 0.0528-0.9561 0.0422-1.6136 0.1969-2.1828 0.4185-0.5939 0.2317-1.0967 0.5376-1.5956 1.0405C4.009 5.0118 3.703 5.514 3.4713 6.1046 3.2497 6.6777 3.0951 7.3312 3.0529 8.2874 3.0107 9.2508 3 9.5562 3 11.9994c0 2.4431 0.0107 2.7485 0.0529 3.7086 0.0421 0.9561 0.1968 1.6136 0.4184 2.1828 0.2323 0.5939 0.5377 1.0967 1.0405 1.5956 0.4989 0.4988 1.0017 0.8087 1.5922 1.0371 0.5731 0.2216 1.2267 0.3762 2.1828 0.4184 0.9595 0.0422 1.2654 0.0529 3.7086 0.0529 2.4432 0 2.7492-0.0107 3.7087-0.0529 0.9561-0.0422 1.6136-0.1968 2.1827-0.4184 0.5906-0.2284 1.0934-0.5377 1.5923-1.0371 0.4988-0.4995 0.8087-1.0017 1.0371-1.5923 0.2216-0.5731 0.3762-1.2266 0.4184-2.1827 0.0422-0.9595 0.0529-1.2655 0.0529-3.7087 0-2.4431-0.0107-2.7485-0.0529-3.7086-0.0422-0.9561-0.1968-1.6136-0.4184-2.1828-0.2216-0.5978-0.5276-1.1001-1.0298-1.5995-0.4989-0.4989-1.0017-0.8088-1.5923-1.0371-0.5731-0.2216-1.2266-0.3763-2.1827-0.4185C14.7485 3.0107 14.4425 3 11.9994 3z" />
            <path d="M11.9985 7.377C9.4468 7.377 7.376 9.4472 7.376 11.9995c0 2.5523 2.0703 4.6226 4.6225 4.6226 2.5523 0 4.6226-2.0703 4.6226-4.6226 0-2.5517-2.0703-4.6226-4.6226-4.6226zM11.9985 14.9978c-1.6557 0-2.9982-1.3425-2.9982-2.9983s1.3425-2.9983 2.9982-2.9983c1.6558 0 2.9983 1.3425 2.9983 2.9983s-1.3425 2.9983-2.9983 2.9983z" />
            <path d="M17.8822 7.194c0 0.5962-0.4831 1.0793-1.0793 1.0793-0.5961 0-1.0793-0.4831-1.0793-1.0793s0.4832-1.0792 1.0793-1.0792c0.5962-1e-4 1.0793 0.4831 1.0793 1.0792z" />
        </symbol>
        <symbol id="IconFacebook" viewBox="0 0 24 24" fill="none">
            <path fill="var(--color0, #fff)" d="M22 12.3038c0-5.5566-4.4771-10.0611-10-10.0611-5.5228 0-10 4.5045-10 10.0611 0 5.0217 3.6568 9.1841 8.4375 9.9389v-7.0306H7.8984l0-2.9083h2.5391v-2.2166c0-2.5216 1.493-3.9144 3.7771-3.9144 1.0942 0 2.2385 0.1965 2.2385 0.1965v2.476l-1.2609 0c-1.2422 0-1.6297 0.7756-1.6297 1.5713v1.8872h2.7734l-0.4433 2.9083h-2.3301v7.0306C18.3432 21.4879 22 17.3257 22 12.3038z" />
        </symbol>
    </defs>
</svg>