<svg aria-hidden="true" style="position: absolute; width: 0; height: 0; overflow: hidden;" version="1.1" xmlns="http://www.w3.org/2000/svg" xmlns:xlink="http://www.w3.org/1999/xlink">
<defs>
<symbol id="icon-burger-button" viewBox="0 0 32 32">
<path d="M5.333 8h21.333v2.667h-21.333v-2.667zM5.333 14.667h21.333v2.667h-21.333v-2.667zM5.333 21.333h21.333v2.667h-21.333v-2.667z"></path>
</symbol>

<symbol id="email-icon" viewBox="0 0 24 24">
<path d="M20 4H4C2.897 4 2 4.897 2 6V18C2 19.103 2.897 20 4 20H20C21.103 20 22 19.103 22 18V6C22 4.897 21.103 4 20 4ZM20 6V6.511L12 12.734L4 6.512V6H20ZM4 18V9.044L11.386 14.789C11.5611 14.9265 11.7773 15.0013 12 15.0013C12.2227 15.0013 12.4389 14.9265 12.614 14.789L20 9.044L20.002 18H4Z" fill="#010400"/>
</symbol>

<symbol id="phone-icon" viewBox="0 0 24 24">
<path d="M17.7068 12.2932C17.6141 12.2003 17.5039 12.1265 17.3825 12.0762C17.2612 12.0259 17.1312 12 16.9998 12C16.8685 12 16.7385 12.0259 16.6172 12.0762C16.4958 12.1265 16.3856 12.2003 16.2928 12.2932L14.6988 13.8872C13.9598 13.6672 12.5808 13.1672 11.7068 12.2932C10.8328 11.4192 10.3328 10.0402 10.1128 9.3012L11.7068 7.7072C11.7998 7.61441 11.8735 7.50421 11.9238 7.38289C11.9742 7.26158 12 7.13153 12 7.0002C12 6.86887 11.9742 6.73882 11.9238 6.61751C11.8735 6.49619 11.7998 6.38599 11.7068 6.2932L7.70685 2.2932C7.61406 2.20026 7.50385 2.12652 7.38254 2.07621C7.26122 2.0259 7.13118 2 6.99985 2C6.86851 2 6.73847 2.0259 6.61715 2.07621C6.49584 2.12652 6.38563 2.20026 6.29285 2.2932L3.58085 5.0052C3.20085 5.3852 2.98685 5.9072 2.99485 6.4402C3.01785 7.8642 3.39485 12.8102 7.29285 16.7082C11.1908 20.6062 16.1368 20.9822 17.5618 21.0062H17.5898C18.1178 21.0062 18.6168 20.7982 18.9948 20.4202L21.7068 17.7082C21.7998 17.6154 21.8735 17.5052 21.9238 17.3839C21.9741 17.2626 22 17.1325 22 17.0012C22 16.8699 21.9741 16.7398 21.9238 16.6185C21.8735 16.4972 21.7998 16.387 21.7068 16.2942L17.7068 12.2932ZM17.5798 19.0052C16.3318 18.9842 12.0618 18.6492 8.70685 15.2932C5.34085 11.9272 5.01485 7.6422 4.99485 6.4192L6.99985 4.4142L9.58585 7.0002L8.29285 8.2932C8.17531 8.41065 8.08889 8.55554 8.0414 8.71477C7.99391 8.874 7.98684 9.04256 8.02085 9.2052C8.04485 9.3202 8.63185 12.0472 10.2918 13.7072C11.9518 15.3672 14.6788 15.9542 14.7938 15.9782C14.9564 16.0132 15.1251 16.0067 15.2845 15.9593C15.4439 15.9119 15.5888 15.8252 15.7058 15.7072L16.9998 14.4142L19.5858 17.0002L17.5798 19.0052Z" fill="#010400"/>
</symbol> 

<symbol id="icon-feedback-star-black" viewBox="0 0 34 32">
<path d="M15.277 1.031c0.579-1.375 2.551-1.375 3.13 0l3.417 8.116c0.244 0.58 0.796 0.976 1.43 1.026l8.869 0.702c1.503 0.119 2.112 1.972 0.967 2.941l-6.757 5.718c-0.483 0.408-0.694 1.049-0.546 1.66l2.064 8.55c0.35 1.449-1.245 2.594-2.532 1.817l-7.593-4.582c-0.542-0.327-1.224-0.327-1.767 0l-7.593 4.582c-1.287 0.776-2.882-0.369-2.532-1.817l2.064-8.55c0.147-0.611-0.063-1.252-0.546-1.66l-6.757-5.718c-1.145-0.969-0.536-2.822 0.967-2.941l8.869-0.702c0.633-0.050 1.185-0.446 1.429-1.026l3.417-8.116z"></path>
</symbol>
<symbol id="icon-feedback-star-empty" viewBox="0 0 34 32">
<path stroke-linejoin="miter" stroke-linecap="butt" stroke-miterlimit="4" stroke-width="1.6842" d="M16.053 1.359c0.29-0.688 1.289-0.688 1.579 0l3.416 8.115c0.368 0.873 1.197 1.465 2.14 1.539l8.868 0.702c0.771 0.061 1.046 0.986 0.49 1.457l-6.758 5.719c-0.724 0.612-1.044 1.579-0.821 2.502l2.066 8.549c0.167 0.694-0.609 1.303-1.28 0.898h-0.002l-7.59-4.581c-0.81-0.489-1.828-0.489-2.638 0l-7.592 4.581c-0.671 0.405-1.447-0.204-1.28-0.898l2.066-8.549c0.223-0.923-0.097-1.889-0.821-2.502l-6.758-5.719c-0.556-0.472-0.281-1.396 0.49-1.457l8.868-0.702c0.943-0.075 1.772-0.666 2.14-1.539l3.416-8.115z"></path>
</symbol>
<symbol id="icon-close" viewBox="0 0 32 32">
<path d="M21.589 8.459l-5.657 5.656-5.656-5.656-1.885 1.885 5.656 5.656-5.656 5.656 1.885 1.885 5.656-5.656 5.657 5.656 1.885-1.885-5.656-5.656 5.656-5.656-1.885-1.885z"></path>
</symbol>
<symbol id="icon-faq-chevron-down" viewBox="0 0 17 10">
<path d="M15.5127 0.573242C15.6103 0.475644 15.7686 0.475618 15.8662 0.573242L16.2197 0.926758C16.3174 1.02438 16.3173 1.18263 16.2197 1.28027L8.57324 8.92676C8.4756 9.0244 8.31736 9.0244 8.21973 8.92676L0.573242 1.28027C0.475626 1.18263 0.475613 1.02439 0.573242 0.926758L0.926758 0.573242C1.02437 0.475624 1.18263 0.475625 1.28027 0.573242L8.39648 7.68945L15.5127 0.573242Z" fill="currentColor" stroke="currentColor"/>
</symbol>
<symbol id="icon-faq-chevron-up" viewBox="0 0 17 10">
<path d="M1.28027 8.92676C1.18263 9.02436 1.02438 9.02438 0.926758 8.92676L0.573242 8.57324C0.475618 8.47562 0.475644 8.31737 0.573242 8.21973L8.21973 0.573242C8.31736 0.475604 8.4756 0.475605 8.57324 0.573242L16.2197 8.21973C16.3173 8.31737 16.3174 8.47561 16.2197 8.57324L15.8662 8.92676C15.7686 9.02438 15.6103 9.02438 15.5127 8.92676L8.39648 1.81055L1.28027 8.92676Z" fill="currentColor" stroke="currentColor"/>
</symbol>

<!-- benefits -->
<symbol id="icon-benefits-star" viewBox="0 0 31 32">
      <path d="M27.677 5.218l-9.038 5.219v-10.437h-6.4v10.437l-9.038-5.219-3.2 5.544 9.037 5.218-9.037 5.218 3.2 5.544 9.038-5.218v10.437h6.4v-10.437l9.038 5.218 3.2-5.544-9.037-5.218 9.037-5.218-3.2-5.544z"></path>
    </symbol>
    <symbol id="icon-benefits-planet" viewBox="0 0 31 32">
      <path d="M4.565 26.663c2.958 2.958 6.876 4.586 11.038 4.586s8.081-1.628 11.038-4.586c6.086-6.086 6.086-15.989 0-22.077-2.956-2.957-6.878-4.586-11.038-4.586s-8.081 1.63-11.038 4.588c-6.086 6.085-6.086 15.989 0 22.075zM16.085 3.147c2.607 0.094 5.117 1.011 7.171 2.619l-7.653 7.652-2.279-2.279c1.812-2.309 2.797-5.164 2.761-7.992zM11.091 8.907l-3.141-3.141c1.474-1.156 3.192-1.962 5.023-2.357-0.023 1.929-0.695 3.867-1.883 5.498zM8.868 11.099c-1.59 1.086-3.474 1.662-5.399 1.65 0.406-1.737 1.182-3.365 2.276-4.773l3.123 3.124zM3.132 15.853c0.12 0.003 0.24 0.022 0.361 0.022 2.747 0.009 5.421-0.883 7.613-2.538l2.29 2.288-7.65 7.65c-1.651-2.126-2.568-4.731-2.613-7.422zM22.322 20.138c1.627-1.183 3.559-1.854 5.476-1.883-0.39 1.829-1.189 3.545-2.337 5.022l-3.139-3.139zM23.254 25.485c-1.408 1.1-3.037 1.883-4.775 2.295-0.018-1.933 0.558-3.825 1.65-5.42l3.125 3.125zM15.381 28.116c-2.698-0.043-5.308-0.967-7.432-2.632l7.653-7.652 2.284 2.284c-1.722 2.254-2.59 5.098-2.505 8zM28.062 15.145c-2.821-0.028-5.671 0.952-7.973 2.76l-2.279-2.279 7.65-7.65c1.597 2.058 2.507 4.566 2.602 7.17z"></path>
    </symbol>
    <symbol id="icon-benefits-spoon-and-fork" viewBox="0 0 28 32">
      <path d="M14.222 12.444h-3.556v-12.444h-3.556v12.444h-3.556v-12.444h-3.556v14.222c0 2.94 2.393 5.333 5.333 5.333h1.778v12.444h3.556v-12.444h1.778c2.94 0 5.333-2.393 5.333-5.333v-14.222h-3.556v12.444zM26.667 0h-1.778c-2.060 0-3.556 2.244-3.556 5.333v14.222h3.556v12.444h3.556v-30.222c0-0.472-0.187-0.924-0.521-1.257s-0.786-0.521-1.257-0.521z"></path>
    </symbol>
    <symbol id="icon-benefits-cheese" viewBox="0 0 33 32">
      <path d="M21.597 0.018c-0.375-0.056-0.758 0.019-1.083 0.213l-19.692 11.487c-0.078 0.045-0.15 0.101-0.213 0.164l-0.164 0.131c-0.112 0.129-0.205 0.273-0.279 0.427-0.117 0.216-0.173 0.46-0.164 0.706v16.41c0 0.435 0.173 0.853 0.481 1.16s0.725 0.481 1.16 0.481h29.538c0.435 0 0.853-0.173 1.16-0.481s0.481-0.725 0.481-1.16v-16.41c0.006-3.168-1.122-6.234-3.181-8.642s-4.912-3.999-8.043-4.486zM21.597 3.382c1.973 0.404 3.777 1.397 5.175 2.847s2.322 3.29 2.653 5.276h-21.711l13.883-8.123zM29.539 27.916h-26.256v-13.128h26.256v13.128z"></path>
      <path d="M7.386 26.274c1.359 0 2.462-1.102 2.462-2.462s-1.102-2.462-2.462-2.462-2.462 1.102-2.462 2.462c0 1.359 1.102 2.462 2.462 2.462z"></path>
      <path d="M15.591 21.351c1.36 0 2.462-1.102 2.462-2.462s-1.102-2.462-2.462-2.462c-1.359 0-2.462 1.102-2.462 2.462s1.102 2.462 2.462 2.462z"></path>
      <path d="M24.616 26.274c1.813 0 3.282-1.469 3.282-3.282s-1.469-3.282-3.282-3.282c-1.813 0-3.282 1.469-3.282 3.282s1.469 3.282 3.282 3.282z"></path>
    </symbol>
    
</defs>
</svg>