<svg aria-hidden="true" style="position: absolute; width: 0; height: 0; overflow: hidden;" version="1.1" xmlns="http://www.w3.org/2000/svg" xmlns:xlink="http://www.w3.org/1999/xlink">
<defs>
<symbol id="icon-burger-button" viewBox="0 0 32 32">
<path d="M5.333 8h21.333v2.667h-21.333v-2.667zM5.333 14.667h21.333v2.667h-21.333v-2.667zM5.333 21.333h21.333v2.667h-21.333v-2.667z"></path>
</symbol>
<symbol id="icon-feedback-star-black" viewBox="0 0 34 32">
<path d="M15.277 1.031c0.579-1.375 2.551-1.375 3.13 0l3.417 8.116c0.244 0.58 0.796 0.976 1.43 1.026l8.869 0.702c1.503 0.119 2.112 1.972 0.967 2.941l-6.757 5.718c-0.483 0.408-0.694 1.049-0.546 1.66l2.064 8.55c0.35 1.449-1.245 2.594-2.532 1.817l-7.593-4.582c-0.542-0.327-1.224-0.327-1.767 0l-7.593 4.582c-1.287 0.776-2.882-0.369-2.532-1.817l2.064-8.55c0.147-0.611-0.063-1.252-0.546-1.66l-6.757-5.718c-1.145-0.969-0.536-2.822 0.967-2.941l8.869-0.702c0.633-0.050 1.185-0.446 1.429-1.026l3.417-8.116z"></path>
</symbol>
<symbol id="icon-feedback-star-empty" viewBox="0 0 34 32">
<path stroke-linejoin="miter" stroke-linecap="butt" stroke-miterlimit="4" stroke-width="1.6842" d="M16.053 1.359c0.29-0.688 1.289-0.688 1.579 0l3.416 8.115c0.368 0.873 1.197 1.465 2.14 1.539l8.868 0.702c0.771 0.061 1.046 0.986 0.49 1.457l-6.758 5.719c-0.724 0.612-1.044 1.579-0.821 2.502l2.066 8.549c0.167 0.694-0.609 1.303-1.28 0.898h-0.002l-7.59-4.581c-0.81-0.489-1.828-0.489-2.638 0l-7.592 4.581c-0.671 0.405-1.447-0.204-1.28-0.898l2.066-8.549c0.223-0.923-0.097-1.889-0.821-2.502l-6.758-5.719c-0.556-0.472-0.281-1.396 0.49-1.457l8.868-0.702c0.943-0.075 1.772-0.666 2.14-1.539l3.416-8.115z"></path>
</symbol>
<symbol id="icon-close" viewBox="0 0 32 32">
<path d="M21.589 8.459l-5.657 5.656-5.656-5.656-1.885 1.885 5.656 5.656-5.656 5.656 1.885 1.885 5.656-5.656 5.657 5.656 1.885-1.885-5.656-5.656 5.656-5.656-1.885-1.885z"></path>
</symbol>
<symbol id="icon-faq-chevron-down" viewBox="0 0 17 10">
<path d="M15.5127 0.573242C15.6103 0.475644 15.7686 0.475618 15.8662 0.573242L16.2197 0.926758C16.3174 1.02438 16.3173 1.18263 16.2197 1.28027L8.57324 8.92676C8.4756 9.0244 8.31736 9.0244 8.21973 8.92676L0.573242 1.28027C0.475626 1.18263 0.475613 1.02439 0.573242 0.926758L0.926758 0.573242C1.02437 0.475624 1.18263 0.475625 1.28027 0.573242L8.39648 7.68945L15.5127 0.573242Z" fill="currentColor" stroke="currentColor"/>
</symbol>
<symbol id="icon-faq-chevron-up" viewBox="0 0 17 10">
<path d="M1.28027 8.92676C1.18263 9.02436 1.02438 9.02438 0.926758 8.92676L0.573242 8.57324C0.475618 8.47562 0.475644 8.31737 0.573242 8.21973L8.21973 0.573242C8.31736 0.475604 8.4756 0.475605 8.57324 0.573242L16.2197 8.21973C16.3173 8.31737 16.3174 8.47561 16.2197 8.57324L15.8662 8.92676C15.7686 9.02438 15.6103 9.02438 15.5127 8.92676L8.39648 1.81055L1.28027 8.92676Z" fill="currentColor" stroke="currentColor"/>
</symbol>
</defs>
</svg>
